<svg width="70" height="77" viewBox="0 0 70 77" fill="none" xmlns="http://www.w3.org/2000/svg">
<path d="M18.293 48.086L21.1302 49.7242L23.9674 48.086V44.8098L21.1302 43.1719L18.293 44.8098V48.086Z" fill="black"/>
<path d="M19.4961 40.3471V37.142L16.6582 35.5039L13.8203 37.142V40.3471L16.6582 41.9854L19.4961 40.3471Z" fill="black"/>
<path d="M15.026 48.086V44.8098L12.1887 43.1719L9.35156 44.8098V48.086L12.1887 49.7242L15.026 48.086Z" fill="black"/>
<path d="M27.0176 41.1629L28.4363 40.344V37.0677L25.5988 35.4297L22.7617 37.0677V40.344L25.5988 41.9819L27.0176 41.1629Z" fill="black"/>
<path d="M34.0865 16.4688H8.1718C4.06869 16.4688 0.730469 19.807 0.730469 23.9101V69.4076C0.730469 73.5107 4.06869 76.8489 8.1718 76.8489H34.0865C38.1896 76.8489 41.5278 73.5107 41.5278 69.4076V23.9101C41.5278 19.807 38.1896 16.4688 34.0865 16.4688ZM6.08949 43.8692C6.08949 43.2863 6.4005 42.7474 6.90551 42.4559L10.558 40.3473V36.1991C10.558 35.616 10.8691 35.0772 11.3742 34.7857L15.8441 32.2058C16.3491 31.9143 16.971 31.9146 17.4757 32.2058L21.0684 34.2795L24.7827 32.1349C25.2876 31.8433 25.9098 31.8433 26.4146 32.1349L30.8838 34.7152C31.3887 35.0066 31.6998 35.5455 31.6998 36.1284V40.3469L35.3529 42.4559C35.8578 42.7474 36.169 43.2863 36.169 43.8692V49.0297C36.169 49.6126 35.858 50.1514 35.3529 50.4429L30.8838 53.0231C30.3794 53.3146 29.7568 53.3148 29.2519 53.0231L25.5983 50.9138L21.9449 53.0231C21.4403 53.3146 20.8178 53.3148 20.313 53.0231L16.6598 50.9139L13.0066 53.0231C12.5021 53.3146 11.8795 53.3148 11.3747 53.0231L6.90566 50.4429C6.4008 50.1514 6.08964 49.6126 6.08964 49.0297L6.08949 43.8692ZM30.1046 67.0576H12.1537C11.2525 67.0576 10.5218 66.3268 10.5218 65.4257C10.5218 64.5246 11.2525 63.7938 12.1537 63.7938H30.1046C31.0058 63.7938 31.7365 64.5246 31.7365 65.4257C31.7365 66.3268 31.0058 67.0576 30.1046 67.0576ZM35.0003 60.5299H7.25802C6.35688 60.5299 5.62613 59.7991 5.62613 58.898C5.62613 57.9967 6.35688 57.2661 7.25802 57.2661H35.0003C35.9014 57.2661 36.6322 57.9969 36.6322 58.898C36.6322 59.7993 35.9014 60.5299 35.0003 60.5299Z" fill="black"/>
<path d="M27.2305 48.086L30.0679 49.7242L32.905 48.086V44.8098L30.0679 43.1719L28.6493 43.9909L27.2305 44.8099V48.086Z" fill="black"/>
<path d="M56.2139 21.3614H64.3734C65.2731 21.3614 66.0053 20.6293 66.0053 19.7295C66.0053 18.8298 65.2731 18.0977 64.3734 18.0977H56.2139C55.3141 18.0977 54.582 18.8298 54.582 19.7295C54.582 20.6293 55.3141 21.3614 56.2139 21.3614Z" fill="black"/>
<path d="M64.3734 31.1562H56.2139C55.3141 31.1562 54.582 31.8884 54.582 32.7881C54.582 33.6879 55.3141 34.42 56.2139 34.42H57.0298H63.5573H64.3734C65.2731 34.42 66.0053 33.6879 66.0053 32.7881C66.0053 31.8884 65.2731 31.1562 64.3734 31.1562Z" fill="black"/>
<path d="M58.6641 75.2173C58.6641 76.1171 59.3962 76.8492 60.296 76.8492C61.1957 76.8492 61.9278 76.1171 61.9278 75.2173V37.6836H58.6641V75.2173Z" fill="black"/>
<path d="M67.6392 24.625H64.3754H56.216H52.9522C52.0524 24.625 51.3203 25.3571 51.3203 26.2569C51.3203 27.1567 52.0524 27.8888 52.9522 27.8888H56.216H64.3754H67.6392C68.539 27.8888 69.2711 27.1567 69.2711 26.2569C69.2711 25.3571 68.539 24.625 67.6392 24.625Z" fill="black"/>
<path d="M7.25781 13.2043H8.17159H34.0863H35.0001V8.30859H7.25781V13.2043Z" fill="black"/>
<path d="M35.0001 0.148438H7.25781V5.0441H35.0001V0.148438Z" fill="black"/>
<path d="M2.36236 5.04297C1.46122 5.04297 0.730469 5.77372 0.730469 6.67486C0.730469 7.576 1.46122 8.30675 2.36236 8.30675H7.25802V5.04297H2.36236Z" fill="black"/>
<path d="M39.8957 5.04297H35V8.30675H39.8957C40.7968 8.30675 41.5276 7.576 41.5276 6.67486C41.5276 5.77372 40.797 5.04297 39.8957 5.04297Z" fill="black"/>
</svg>
