<svg width="84" height="84" viewBox="0 0 84 84" fill="none" xmlns="http://www.w3.org/2000/svg">
<path d="M55.125 37.2031C42.2789 37.2031 31.8281 45.234 31.8281 55.1056C31.8281 64.9773 42.2855 73.0098 55.125 73.0098C67.9645 73.0098 78.4219 64.9707 78.4219 55.1056C78.4219 45.2405 67.976 37.2031 55.125 37.2031ZM55.125 70.5587C43.6406 70.5587 34.2891 63.627 34.2891 55.1056C34.2891 46.5842 43.6406 39.6526 55.125 39.6526C66.6094 39.6526 75.9773 46.5859 75.9773 55.1056C75.9773 63.6254 66.6258 70.5587 55.125 70.5587Z" fill="black"/>
<path d="M40.1527 24.3567C40.1527 16.9887 32.3958 10.9922 22.8621 10.9922C13.3284 10.9922 5.57812 16.9887 5.57812 24.3567C5.57812 31.7248 13.335 37.7229 22.867 37.7229C32.3991 37.7229 40.1527 31.7264 40.1527 24.3567ZM22.8621 35.2734C14.6803 35.2734 8.02266 30.3762 8.02266 24.3567C8.02266 18.3373 14.6803 13.4433 22.8621 13.4433C31.0439 13.4433 37.7032 18.3389 37.7032 24.3567C37.7032 30.3745 31.0455 35.2734 22.8621 35.2734Z" fill="black"/>
<path d="M49.4 43.9023C40.4356 45.2148 37.8664 52.9684 37.7614 53.2965C37.7086 53.4508 37.6871 53.6141 37.6981 53.7769C37.7092 53.9396 37.7527 54.0985 37.826 54.2442C37.8993 54.3899 38.0009 54.5196 38.125 54.6255C38.249 54.7314 38.393 54.8115 38.5484 54.8611C38.7038 54.9107 38.8675 54.9287 39.03 54.9142C39.1924 54.8997 39.3504 54.8529 39.4945 54.7765C39.6386 54.7002 39.7661 54.5958 39.8694 54.4696C39.9727 54.3433 40.0497 54.1978 40.096 54.0413C40.1173 53.9757 42.2895 47.4231 49.7577 46.3304C49.9214 46.3123 50.0798 46.2614 50.2234 46.1808C50.367 46.1001 50.4928 45.9913 50.5935 45.8609C50.6941 45.7305 50.7674 45.5811 50.809 45.4218C50.8506 45.2624 50.8596 45.0963 50.8356 44.9333C50.8115 44.7704 50.7549 44.6139 50.669 44.4734C50.5831 44.3328 50.4698 44.211 50.3358 44.1152C50.2018 44.0194 50.0499 43.9517 49.8891 43.9159C49.7283 43.8802 49.562 43.8772 49.4 43.9072V43.9023Z" fill="black"/>
<path d="M54.5273 43.0039C54.2288 43.0042 53.9372 43.093 53.6892 43.2591C53.4412 43.4251 53.2479 43.661 53.134 43.9368C53.02 44.2126 52.9903 44.5161 53.0487 44.8088C53.1072 45.1014 53.251 45.3702 53.4622 45.5812C53.6734 45.7921 53.9423 45.9357 54.235 45.9938C54.5278 46.0519 54.8312 46.0219 55.1069 45.9076C55.3826 45.7933 55.6182 45.5999 55.784 45.3517C55.9498 45.1035 56.0383 44.8117 56.0383 44.5133C56.0383 44.3149 55.9992 44.1185 55.9232 43.9353C55.8473 43.7521 55.736 43.5856 55.5956 43.4454C55.4553 43.3052 55.2887 43.1941 55.1054 43.1183C54.9221 43.0426 54.7256 43.0037 54.5273 43.0039Z" fill="black"/>
</svg>
