<svg width="82" height="81" viewBox="0 0 82 81" fill="none" xmlns="http://www.w3.org/2000/svg">
<g clip-path="url(#clip0_9_84)">
<path d="M31.0683 44.0057C31.054 43.973 31.029 43.9461 30.9973 43.9297C30.9657 43.9133 30.9293 43.9083 30.8944 43.9155C30.8595 43.9227 30.8281 43.9417 30.8055 43.9693C30.7829 43.9969 30.7705 44.0314 30.7704 44.0671C30.7413 45.5499 30.3201 48.6229 27.9341 53.1955C25.1021 58.6235 25.207 63.4513 27.0812 66.5091C28.9718 69.5934 32.7428 70.2232 36.1754 69.5152C39.6081 68.8071 42.82 66.733 43.3366 63.1562C43.8479 59.6063 42.0339 55.1311 37.2851 51.2667C33.2845 48.0114 31.6817 45.3559 31.0683 44.0057ZM35.7915 67.6606C32.6047 68.3179 29.8689 67.3553 28.4792 65.0817C26.898 62.5044 27.0815 58.8052 28.9697 55.1855C29.1633 54.8704 29.4693 54.6404 29.8258 54.542C30.1824 54.4436 30.5629 54.4841 30.8908 54.6553C31.2186 54.8265 31.4693 55.1157 31.5923 55.4645C31.7153 55.8134 31.7014 56.1958 31.5534 56.5348C30.1443 59.2366 29.921 61.8619 30.9677 63.5567C32.0385 65.3035 34.483 64.9525 35.2063 64.8034C35.5857 64.7251 35.9808 64.8008 36.3044 65.0138C36.6281 65.2267 36.8539 65.5596 36.9322 65.939C37.0105 66.3185 36.9348 66.7136 36.7218 67.0372C36.5088 67.3609 36.176 67.5867 35.7965 67.665L35.7915 67.6606Z" fill="black"/>
<path d="M24.7307 47.1402C24.8874 46.0528 24.3906 44.7287 23.1998 43.4989L14.133 28.6336C13.187 30.1227 12.6763 31.8465 12.6584 33.6105C12.6405 35.3745 13.1162 37.1084 14.0318 38.6163L14.3396 39.1156C15.4891 41.0066 17.272 42.4287 19.3713 43.1291C19.3045 43.2785 19.2572 43.3981 19.1777 43.5515C18.1575 45.5085 18.1948 47.2475 18.8695 48.3491C19.5442 49.4508 20.9093 49.6913 22.1476 49.4359C23.3859 49.1804 24.5438 48.4303 24.7307 47.1402Z" fill="black"/>
<path d="M27.3866 42.2785L29.9426 40.7193L19.75 24.006L17.1927 25.5655C16.8738 25.7784 16.5679 26.0104 16.2769 26.2602L26.3514 42.7822C26.7062 42.6352 27.0519 42.467 27.3866 42.2785Z" fill="black"/>
<path d="M35.1674 37.5345C35.4727 37.3388 35.7665 37.1256 36.0473 36.896L25.9466 20.3319C25.614 20.4764 25.29 20.6401 24.9764 20.8222L22.3672 22.4127L32.5608 39.1244L35.1674 37.5345Z" fill="black"/>
<path d="M61.7556 9.8498C61.2808 9.07286 60.5169 8.51619 59.6319 8.30208C58.7468 8.08797 57.813 8.23394 57.0355 8.70791L35.9019 21.5982C33.9725 20.0266 31.5058 19.2703 29.0271 19.4904L38.205 34.5389C39.5356 32.4365 39.9929 29.8976 39.4793 27.4631L60.6119 14.5743C60.9973 14.3392 61.3325 14.0305 61.5985 13.6658C61.8645 13.3012 62.0561 12.8877 62.1623 12.4489C62.2685 12.0102 62.2872 11.5549 62.2175 11.1089C62.1477 10.663 61.9908 10.2351 61.7556 9.8498Z" fill="black"/>
</g>
<defs>
<clipPath id="clip0_9_84">
<rect width="68" height="68" fill="white" transform="translate(0.832031 13.7383) rotate(-11.6548)"/>
</clipPath>
</defs>
</svg>
