<svg width="24" height="24" viewBox="0 0 24 24" fill="none" xmlns="http://www.w3.org/2000/svg">
<rect x="0.5" y="0.5" width="23" height="23" rx="11.5" stroke="#F98F44"/>
<g clip-path="url(#clip0_52_2)">
<path fill-rule="evenodd" clip-rule="evenodd" d="M10.2765 12.2867C10.899 10.42 11.4058 9.90444 13.2733 9.28222C14.0826 9.01556 14.0826 7.88667 13.2733 7.61111C11.4058 6.98889 10.899 6.48222 10.2765 4.60667C10.0097 3.79778 8.88029 3.79778 8.60461 4.60667C7.98212 6.47333 7.47523 6.98889 5.60774 7.61111C5.19867 7.74444 4.99414 8.09111 4.99414 8.44667C4.99414 8.80222 5.19867 9.14889 5.60774 9.28222C7.47523 9.90444 7.98212 10.4111 8.60461 12.2867C8.8714 13.0956 10.0008 13.0956 10.2765 12.2867ZM12.7042 17.5133C11.8149 17.22 11.5748 16.98 11.2814 16.0911C11.1569 15.7089 10.6233 15.7089 10.4899 16.0911C10.1964 16.98 9.95632 17.22 9.06704 17.5133C8.8714 17.5756 8.77358 17.7444 8.77358 17.9044C8.77358 18.0644 8.8714 18.2333 9.06704 18.2956C9.95632 18.5889 10.1964 18.8289 10.4899 19.7178C10.6144 20.1 11.148 20.1 11.2814 19.7178C11.5748 18.8289 11.8149 18.5889 12.7042 18.2956C13.0866 18.1711 13.0866 17.6378 12.7042 17.5044V17.5133ZM15.4961 9.96564L13.61 11.8516C12.7864 12.6751 12.7866 14.0202 13.6105 14.8435L15.4973 16.7287C16.3212 17.552 17.6668 17.5517 18.4905 16.7282L20.3766 14.8422C21.2002 14.0188 21.2 12.6736 20.3761 11.8504L18.4893 9.96512C17.6654 9.14188 16.3197 9.14211 15.4961 9.96564Z" fill="#F98F44"/>
</g>
<defs>
<clipPath id="clip0_52_2">
<rect width="16" height="16" fill="white" transform="translate(5 4)"/>
</clipPath>
</defs>
</svg>
